STARTFONT 2.1
COMMENT the Lisp Machine name for this font was "37vxms.ast"
FONT vxms-37.bdf
SIZE 35 75 75
FONTBOUNDINGBOX 44 28 0 0
STARTPROPERTIES 3
FONT_DESCENT 9
FONT_ASCENT 28
COPYRIGHT "Public domain font.  Share and enjoy."
ENDPROPERTIES
CHARS 67
STARTCHAR C040
ENCODING 32
SWIDTH 457 0
DWIDTH 16 0
BBX 16 37 0 -9
BITMAP
00
00
00
00
00
00
00
00
00
00
00
00
00
00
00
00
00
00
00
00
00
00
00
00
00
00
00
00
00
00
00
00
00
00
00
00
00
ENDCHAR
STARTCHAR ,
ENCODING 44
SWIDTH 400 0
DWIDTH 14 0
BBX 14 37 0 -9
BITMAP
0000
0000
0000
0000
0000
0000
0000
0000
0000
0000
0000
0000
0000
0000
0000
0000
0000
0000
0000
0000
0000
0000
0000
1c00
3e00
7f80
ff00
3e00
1c00
3800
7000
0000
0000
0000
0000
0000
0000
ENDCHAR
STARTCHAR .
ENCODING 46
SWIDTH 400 0
DWIDTH 14 0
BBX 14 37 0 -9
BITMAP
0000
0000
0000
0000
0000
0000
0000
0000
0000
0000
0000
0000
0000
0000
0000
0000
0000
0000
0000
0000
0000
0000
0800
1c00
3e00
7f80
ff00
3e00
1c00
0000
0000
0000
0000
0000
0000
0000
0000
ENDCHAR
STARTCHAR 0
ENCODING 48
SWIDTH 714 0
DWIDTH 25 0
BBX 25 37 0 -9
BITMAP
000000
000000
000000
000000
000000
007000
00f800
070e00
ff07c0
7f07f0
7e07f0
7e07f0
7e07f0
7e07f0
7e07f0
7e07f0
7e07f0
7e07f0
7e07f0
7e07e0
7e07e0
7e07e0
fe07e0
fe07e0
3e0ff0
070fc0
01f000
00c000
000000
000000
000000
000000
000000
000000
000000
000000
000000
ENDCHAR
STARTCHAR 1
ENCODING 49
SWIDTH 542 0
DWIDTH 19 0
BBX 19 37 0 -9
BITMAP
0000
0000
0000
0000
f0c0
f1c0
f3f0
fffe
7ffe
07f8
07f8
07f8
07f8
07f8
07f8
07f8
07f8
07f8
07f8
07f8
07f8
07f8
07f8
07f8
0ff8
1ffc
0ff8
01c0
0080
0000
0000
0000
0000
0000
0000
0000
0000
ENDCHAR
STARTCHAR 2
ENCODING 50
SWIDTH 685 0
DWIDTH 24 0
BBX 24 37 0 -9
BITMAP
000000
000000
000000
000000
00c000
01e000
073800
7e3fc0
7e1fc0
7e1fc0
7e1fc0
7e1fc0
7e1fc0
401fc0
003fc0
007fc0
00ffc0
03e000
078000
0e0200
180200
303f00
33ff80
6fffc0
7fffe0
ffffc0
ff3f00
c00700
000000
000000
000000
000000
000000
000000
000000
000000
000000
ENDCHAR
STARTCHAR 3
ENCODING 51
SWIDTH 714 0
DWIDTH 25 0
BBX 25 37 0 -9
BITMAP
000000
000000
000000
000000
00e000
01f000
073e00
fe1ff0
fe1fe0
fc1fe0
fc1fe0
fc0fe0
fc0fe0
000fe0
001fe0
003800
03f000
001fe0
001ff0
000fe0
c00fe0
fc0fe0
fc0fe0
fc0fe0
fc0ff0
fe1ff0
07f800
01e000
000000
000000
000000
000000
000000
000000
000000
000000
000000
ENDCHAR
STARTCHAR 4
ENCODING 52
SWIDTH 714 0
DWIDTH 25 0
BBX 25 37 0 -9
BITMAP
000000
000000
000000
000000
000000
000000
007f80
007f00
007e00
00fc00
00f800
01f000
01e000
03c000
078e00
071f00
0e7fc0
1c7f80
383f80
303f80
603f80
ffffe0
ffffc0
003f80
007fc0
00ffe0
001e00
000c00
000000
000000
000000
000000
000000
000000
000000
000000
000000
ENDCHAR
STARTCHAR 5
ENCODING 53
SWIDTH 714 0
DWIDTH 25 0
BBX 25 37 0 -9
BITMAP
000000
000000
000000
000000
000f00
7fff00
7ffc00
7ffc00
7ff800
7ff800
780000
600000
600000
67e000
6e3c00
781fc0
601fe0
600fe0
400fe0
000fe0
f80fe0
f80fe0
f80fe0
f80fe0
fc0fe0
1e1e00
073800
01e000
000000
000000
000000
000000
000000
000000
000000
000000
000000
ENDCHAR
STARTCHAR 6
ENCODING 54
SWIDTH 742 0
DWIDTH 26 0
BBX 26 37 0 -9
BITMAP
000000
000000
000000
000000
000000
007000
00f800
038f00
3f07e0
ff07e0
ff07e0
7f07e0
7f0000
7f3800
7f3e00
7f8780
7f07f8
7f03f8
7f03f8
7e03f8
7e03f8
7e03f8
7e03f8
fe03f8
7f03e0
030700
00fc00
003000
000000
000000
000000
000000
000000
000000
000000
000000
000000
ENDCHAR
STARTCHAR 7
ENCODING 55
SWIDTH 685 0
DWIDTH 24 0
BBX 24 37 0 -9
BITMAP
000000
000000
000000
000000
000000
100060
3fffe0
3fffe0
ffffc0
ffff80
7fff80
7c0180
380300
300200
200600
000e00
000c00
001c00
003c00
007c00
00f800
01f800
03f800
0ff800
1ffc00
1ff800
07c000
018000
000000
000000
000000
000000
000000
000000
000000
000000
000000
ENDCHAR
STARTCHAR 8
ENCODING 56
SWIDTH 742 0
DWIDTH 26 0
BBX 26 37 0 -9
BITMAP
000000
000000
000000
000000
000000
00e000
01fc00
0707e0
ff03f0
7f01f0
7f01f0
7f81f0
7fe1f0
7fff80
7ffe00
0fff00
03ffc0
06fff0
fc3ff8
fc1ff8
7c07f8
7c03f8
7c03f8
7c03f8
fe03f8
1f0700
01f000
007000
000000
000000
000000
000000
000000
000000
000000
000000
000000
ENDCHAR
STARTCHAR 9
ENCODING 57
SWIDTH 742 0
DWIDTH 26 0
BBX 26 37 0 -9
BITMAP
000000
000000
000000
000000
000000
000000
007800
01fc00
0f0f00
ff07f8
fe07f0
fe07f0
fe07f0
fe07f0
fe07f0
fe07f0
fe07f0
fe0ff0
3ffff0
03e7f0
3007f0
3c07f0
3e07f0
3e07f0
7e07f8
7e07f8
030f00
01e000
000000
000000
000000
000000
000000
000000
000000
000000
000000
ENDCHAR
STARTCHAR :
ENCODING 58
SWIDTH 428 0
DWIDTH 15 0
BBX 15 37 0 -9
BITMAP
0000
0000
0000
0000
0000
0000
0000
0000
0000
0000
0800
1c00
3e00
7f80
ff00
3e00
1c00
0000
0000
0000
0000
0000
0800
1c00
3e00
7f80
ff00
3e00
1c00
0000
0000
0000
0000
0000
0000
0000
0000
ENDCHAR
STARTCHAR ;
ENCODING 59
SWIDTH 428 0
DWIDTH 15 0
BBX 15 37 0 -9
BITMAP
0000
0000
0000
0000
0000
0000
0000
0000
0000
0000
0000
1c00
3e00
7f80
ff00
3e00
1c00
0000
0000
0000
0000
0000
0000
1c00
3e00
7f80
ff00
3e00
1c00
3800
7000
0000
0000
0000
0000
0000
0000
ENDCHAR
STARTCHAR A
ENCODING 65
SWIDTH 1057 0
DWIDTH 37 0
BBX 37 37 0 -9
BITMAP
0000000000
01f0000000
03fe038000
0fff8f0000
0fffde0000
1e3ffc0000
1c1ffc0000
380ffc0000
398ffc0000
3bcffc0000
3bcdfe0000
3bcdfe0000
3bd8fe0000
19d8ff0000
1fd87f0000
0fb07f0000
00307f8000
007fff8000
007fffc000
0063bfe000
00e39fe000
01e39ff000
01e31ff800
07e31ffc00
1ff33fff00
7ffb7fff80
fffb03f800
0fe301e000
038300c000
0103400000
0003e00000
0003f00000
0001f00000
0000e00000
0000000000
0000000000
0000000000
ENDCHAR
STARTCHAR B
ENCODING 66
SWIDTH 1028 0
DWIDTH 36 0
BBX 36 37 0 -9
BITMAP
00000000
00000000
7c007800
fc03fe00
fc1fc7e0
fffe43f8
7ffe41fc
01fe41fe
01fe41fe
01fe41fe
01fe41fe
1ffe41fe
1ffe43fc
1ffc7ff0
1ffc7f80
3ffc47e0
11fc43f8
01fc43fc
01fc43fc
01fc43fc
01fcc3fc
01ffc3fc
03ffc3fc
0fffe3f8
1ffff3fc
3fffffee
703ffe07
e007f000
8001c000
0001c000
0001f000
0001f800
0000f800
00000000
00000000
00000000
00000000
ENDCHAR
STARTCHAR C
ENCODING 67
SWIDTH 942 0
DWIDTH 33 0
BBX 33 37 0 -9
BITMAP
00000c00
000c3f80
007867f8
01f1c7f0
03e7c7c0
07efc780
0fffc700
1fcfc700
3f8fc700
3f8fc700
7f8fc700
7f0fc700
7f0fc700
ff0fc600
ff0fc600
ff0fc600
ff0fc600
ff0fc610
ff0fc618
ff0fc630
7f8fc630
7f8fc660
3f8e06c0
1ff80780
0ff00700
07f00600
03fffe00
00ffee00
00000f80
00000fe0
00000fe0
000007e0
00000000
00000000
00000000
00000000
00000000
ENDCHAR
STARTCHAR D
ENCODING 68
SWIDTH 1028 0
DWIDTH 36 0
BBX 36 37 0 -9
BITMAP
00000000
00000000
18000600
fc01ffe0
fc0fe3f8
fffe61fc
7ffe61fe
0bfe61fe
09fe61fe
09fe61fe
09fe61fe
0ffe61fe
1ffe61fe
1ffe7ffe
1ffe63fe
3ffe61fe
33fe61fe
33fe61fe
03fe61fe
03fe61fe
03fe61fe
03ffe1fe
03ffe1fe
03fff1fe
07fffffe
1fffffff
3e1fff00
7807f800
6001e000
0000d800
0000d800
0000fc00
00007c00
00003800
00000000
00000000
00000000
ENDCHAR
STARTCHAR E
ENCODING 69
SWIDTH 1028 0
DWIDTH 36 0
BBX 36 37 0 -9
BITMAP
00000000
00000000
00000000
7001fe00
f81f9fc0
f0fd87f0
fff983fe
7ff981fc
27f9b1f0
27f9b1e0
27f9b0c0
37f9b000
3ff9f800
3ffff800
3ffffc00
3ffffe00
7ff9fe00
67f9f000
47f9f060
47f9f060
47f9a060
47f1a0e0
47f1a0e0
4ff1a1f0
7fffa7f8
7ffffffe
07f39fff
03c381e0
01838040
0003e000
0003f000
00037000
0001f000
0000e000
00000000
00000000
00000000
ENDCHAR
STARTCHAR F
ENCODING 70
SWIDTH 971 0
DWIDTH 34 0
BBX 34 37 0 -9
BITMAP
00000000
00000000
00000000
7001ff00
f81fffe2
f8fdcffe
fff9c3fc
fff9c3f8
17f9c1f0
17f9f1e0
17f9f1c0
17f9f000
3ff9f800
3ffffc00
3fffff00
3fffff00
3ff9fc00
67f9f800
67f9f000
07f9b000
07f9a000
07f98000
07f98000
0ff98000
1fff8000
7fff8000
7ff98000
03c18000
01818000
0001b000
0001f000
0001f800
0001f800
0000f000
00000000
00000000
00000000
ENDCHAR
STARTCHAR G
ENCODING 71
SWIDTH 1000 0
DWIDTH 35 0
BBX 35 37 0 -9
BITMAP
00000000
00000000
00000000
00000000
00007f00
0039ff80
00f39fe0
03ef9fc0
07df1e00
0fff1c00
1fdf1c00
3f1f1c30
7f1f1c70
7f1f1cf8
ff1ffff8
ff1ffffc
ff1f1ffc
ff1f1bfe
ff1f19fe
ff1f19fe
ff1f18fe
ff1f18fe
ff1f98fc
7f1c18f8
3f1018f0
1fc019e0
0fc01fc0
07ffff00
01fff800
00003f00
00001f80
00001f80
00000f80
00000700
00000000
00000000
00000000
ENDCHAR
STARTCHAR H
ENCODING 72
SWIDTH 1114 0
DWIDTH 39 0
BBX 39 37 0 -9
BITMAP
0000000000
0000000000
2060401800
7060c03800
f0f0c07c00
ffffc3ff80
ffffcfffc0
07fec1ff00
07fcc1ff00
07fcc1ff00
07fcc1ff00
1ffcc1ff00
1ffcc1ff00
1fffffff00
1fffffff00
3fffffff00
3ffcc1ff00
23fcc1ff00
03fcc1ff00
03fcc1ff00
03fcc1ff00
03fcc1ff00
03ffc1ff00
07ffc1ffe0
0fffc7ffe0
1ffec7ff00
3ffcc07c00
7838c01800
6000f80000
0000f80000
0000f80000
0000f80000
0000780000
0000000000
0000000000
0000000000
0000000000
ENDCHAR
STARTCHAR I
ENCODING 73
SWIDTH 600 0
DWIDTH 21 0
BBX 21 37 0 -9
BITMAP
000000
000000
000000
000000
786000
f8f800
f9ff00
ffff00
7ffe00
13fe00
13fe00
13fe00
1bfe00
1ffe00
1ffe00
1ffe00
1ffe00
1bfe00
13fe00
03fe00
03fe00
03fe00
03fe00
03fe00
07fe00
1fff80
1ffc00
00f000
006000
000000
000000
000000
000000
000000
000000
000000
000000
ENDCHAR
STARTCHAR J
ENCODING 74
SWIDTH 771 0
DWIDTH 27 0
BBX 27 37 0 -9
BITMAP
000000
000000
000000
000000
078780
0fc7c0
0f9ff8
0ffff0
07ffe0
001fe0
001fe0
001fe0
001fe0
00ffe0
00ffe0
00ffe0
01ffe0
01dfe0
011fe0
001fe0
381fe0
7c1fe0
fe1fe0
fe1fe0
fe1ff0
fc1ffc
f83fc0
707f00
3ff800
1fe000
000000
000000
000000
000000
000000
000000
000000
ENDCHAR
STARTCHAR K
ENCODING 75
SWIDTH 1057 0
DWIDTH 37 0
BBX 37 37 0 -9
BITMAP
0000000000
0000000000
0000000000
0000c03000
70e0c07000
f1f0c0fe00
ffffc7fe00
fffec3fc00
0bfcc1f800
0bfcc1f000
0bfcc1e000
0bfcc1c000
0bfcc38000
1ffcc70000
1ffcfc0000
1ffff80000
1ffffc0000
1ffcdf0000
3bfcc78000
33fcc7e000
03fcc7f000
03fcc3f800
03ffc3fc00
03ffc3fe00
07ffc3ff00
0ffec3ff80
1ffec1fe00
3e7ec07800
300cc00000
2000c00000
0000f80000
0000dc0000
0000fc0000
0000780000
0000000000
0000000000
0000000000
ENDCHAR
STARTCHAR L
ENCODING 76
SWIDTH 828 0
DWIDTH 29 0
BBX 29 37 0 -9
BITMAP
00000000
00000000
00000000
00000000
0003e000
f01ed800
f0fcce00
fffccf00
7ffccf80
13fcdfc0
13fcdf00
13fcce00
13fcc000
1ffcc000
1ffcc000
1ffcc000
1ffcc000
3ffcc000
33fcc000
63fcc000
03fcc000
03ffc000
03ffff80
03ffff80
07ffff00
0ffffe00
1f83fc00
3c01f800
7001c000
4000c000
0000c000
0000f800
0000dc00
0000f800
00007000
00000000
00000000
ENDCHAR
STARTCHAR M
ENCODING 77
SWIDTH 1228 0
DWIDTH 43 0
BBX 43 37 0 -9
BITMAP
0000000000
0000000000
0000000000
0000000000
7000180180
f0381803c0
f87c1807e0
fffff87ff8
7fffe87ffe
05ffc83ffe
04ffc83ff8
04ffc83ff8
04ffc83ff8
04fff87ff8
07dff86ff8
07dff8eff8
07cff8cff8
07cff8cff8
0cc7f98ff8
0cc7fd8ff8
00c3ff0ff8
00c3ff0ff8
00c1ff0ff8
01c1ff0ff8
01e1ff0ff8
07f1ff1ffc
1ff9ffbffe
0fe0fe03e0
01c0380180
0080380000
00001b0000
00001f0000
00001f0000
00000f0000
0000000000
0000000000
0000000000
ENDCHAR
STARTCHAR N
ENCODING 78
SWIDTH 1057 0
DWIDTH 37 0
BBX 37 37 0 -9
BITMAP
0000000000
0000000000
0000000000
7030301c00
7830301c00
f87c30ffc0
ffffb0ff00
7ffff03e00
05fff01c00
05fff01c00
05fff01c00
05fff81c00
07dffc1c00
07cffe1c00
07c7ff1c00
0fc7ff9c00
0dc3ffdc00
01c1fffc00
01c0fffc00
01c07ffc00
01c07ffc00
01c07ffe00
01c07ffe00
01e077f800
07fc73f800
3ffc71f000
1fe070f000
01c0707000
0000702000
00007c0000
00003e0000
00003e0000
00001c0000
0000000000
0000000000
0000000000
0000000000
ENDCHAR
STARTCHAR O
ENCODING 79
SWIDTH 1028 0
DWIDTH 36 0
BBX 36 37 0 -9
BITMAP
00000000
00000000
00000000
00000000
000cff00
007ddf80
01fb9fe0
03ff9bf0
0fff9bf8
1fcf99fc
3f8f99fc
3f8f99fe
7f8f99fe
7f8f98fe
ff8f98ff
ff0f98ff
ff0f90ff
ff0f90ff
ff0f90fe
ff0f90fe
ff0f91fc
7f0f91f8
3f8e11f0
3f9013e0
0fe01fc0
07e01f80
01fffe00
007ff800
00003e00
00003e00
00003f00
00001e00
00000000
00000000
00000000
00000000
00000000
ENDCHAR
STARTCHAR P
ENCODING 80
SWIDTH 971 0
DWIDTH 34 0
BBX 34 37 0 -9
BITMAP
00000000
00000000
00000000
00000000
7803ff00
f81fc7e0
f8fe41f0
fffc41f8
7ffc40fc
13fc40fe
13fc40fe
13fc70fe
1ffc70fe
1ffc61fc
1ffc7ff8
3ffc5ff0
3ffc4fe0
33fc4000
23fc4000
03fc4000
03fc4000
03fc4000
03fc4000
03fc4000
0fffc000
3ffcc000
07f0c000
01e0c000
0040c000
0000f000
0000f800
0000f800
0000f800
00007000
00000000
00000000
00000000
ENDCHAR
STARTCHAR Q
ENCODING 81
SWIDTH 1028 0
DWIDTH 36 0
BBX 36 37 0 -9
BITMAP
00000000
00000000
00000000
00000000
001c7e00
0079ff80
01f3ffe0
07e7f3f0
0fffb3f8
1fffb1fc
3fdfb1fc
3f9fb1fe
7f9fb0fe
7f9fb0fe
ff9fb0fe
ff9fb0ff
ff9fb0ff
ff9fb0ff
ff9fb0fe
ff9fb0fe
ff9fb1fc
7f9f31f8
3f9c33f0
1f9033e0
0fc03fc0
07e03f00
01ffff00
003ffff0
001fffe0
003cff80
00e01f00
01800600
00000000
00000000
00000000
00000000
00000000
ENDCHAR
STARTCHAR R
ENCODING 82
SWIDTH 1028 0
DWIDTH 36 0
BBX 36 37 0 -9
BITMAP
00000000
00000000
00000000
00000000
70000000
fc007e00
fc0fffc0
fc7e43f0
7ffe43fc
07fc41fc
03fc41fc
03fc41fc
0ffc41fc
0ffc43f8
1ffc43f0
1fffffc0
1ffffe00
1ffcdf00
33fcc7c0
03fcc7e0
03fcc7f0
03fcc3f0
03fcc3f8
03fcc3fc
07ffc3fc
3fffc3ff
3ffdc7ff
01f1c0fc
00e1c030
0001c000
0001f800
0001f800
0001f800
0000f800
00007000
00000000
00000000
ENDCHAR
STARTCHAR S
ENCODING 83
SWIDTH 1000 0
DWIDTH 35 0
BBX 35 37 0 -9
BITMAP
00000000
00000000
00000000
00000000
003e0000
01ffe000
070ffc18
0e03fffc
1e007ffe
1f003f3c
1f801e18
1ff81c00
1ffff800
1ffffc00
1fffff80
0fffffe0
07fffff0
01fffff8
007ffffc
000ffffc
00061ffc
01fe03fc
0fff80fc
3fffe07c
7ffff878
e07ffc70
c0c7ffe0
c181ff80
ff01f000
3c000000
00000000
00000000
00000000
00000000
00000000
00000000
00000000
ENDCHAR
STARTCHAR T
ENCODING 84
SWIDTH 942 0
DWIDTH 33 0
BBX 33 37 0 -9
BITMAP
00000000
00000000
00000000
00000000
01f07c10
7ff9eff8
ffbfcff8
ff3fc7f8
ff3fc7f8
fe3fc7f8
fe3fc7f8
fcbfc7f8
f9ffc7f8
f9ffc7f8
f1ffc6f8
e1ffc678
03ffc600
073fc600
023fc600
003fc600
003fc600
003fc600
003fc600
003fc600
007fc400
01fffc00
01ffcc00
001f8c00
00060c00
00000c00
00000d80
00000dc0
00000fc0
00000780
00000300
00000000
00000000
ENDCHAR
STARTCHAR U
ENCODING 85
SWIDTH 1028 0
DWIDTH 36 0
BBX 36 37 0 -9
BITMAP
0000000000
0000000000
0000000000
3030301000
7870303800
f8f8307e00
fffe33ff80
3fff31ff00
0bfe307c00
0bfe303c00
0bfe303800
0bfe303800
0ffe303800
0ffe313800
0ffe333800
1ffe3ff800
1ffe3f1800
3bfe301800
0bfe301800
0bfe301800
0bfe301800
0bfe301800
0bfe303800
07fe303c00
07fe30f000
00ff31c000
001fff0000
0007fc0000
0000700000
00007e0000
00007e0000
00003e0000
00001c0000
0000000000
0000000000
0000000000
0000000000
ENDCHAR
STARTCHAR V
ENCODING 86
SWIDTH 1057 0
DWIDTH 37 0
BBX 37 37 0 -9
BITMAP
0000000000
0000000000
0000000000
0000000000
3180181800
71c0183800
f3f0187c00
ffff1bff80
7fff187f80
03ff187c00
01ff187000
01ff186000
00ff98e000
00ffd8c000
01fff98000
01fffb0000
01fffb0000
01fffe0000
018ffe0000
0307fe0000
0003fe0000
0003fe0000
0003fe0000
0003fe0000
0003fe0000
000fffc000
000fff0000
0000f80000
0000380000
0000380000
00003e0000
00003f0000
00003f0000
0000000000
0000000000
0000000000
0000000000
ENDCHAR
STARTCHAR W
ENCODING 87
SWIDTH 1257 0
DWIDTH 44 0
BBX 44 37 0 -9
BITMAP
000000000000
000000000000
000000000000
000000000000
000000000000
60c003800c00
f1e007801c00
e3f83ff8fe00
fffefff8ff80
7ffc3ff07e00
03fc1ff03800
03fc1ff03800
03fc1ff03000
07fe1ff03000
07fe1ff86000
07fe1ff86000
07fe3ffc6000
0fff3ffcc000
0cff7ffcc000
00ff7ffec000
007ffdff8000
007fddff8000
007fddff8000
007f9cff8000
007f9cffc000
00ff9dffc000
00ff9dfe0000
000e1c1c0000
00041c080000
00001c000000
00001f000000
00001f800000
00000f800000
000007000000
000000000000
000000000000
000000000000
ENDCHAR
STARTCHAR X
ENCODING 88
SWIDTH 942 0
DWIDTH 33 0
BBX 33 37 0 -9
BITMAP
00000000
00000000
00000000
00000000
00000000
78700610
f07c07f0
ffff87f0
7fff8fe0
01ff9fc0
00ff9f80
007fb000
003fe000
003fe000
007ffe00
00fffe00
00fffc00
00cff800
000ff800
000ffc00
000ffc00
0019fe00
0039ff00
03f8ff80
0ffcfff8
1ffcfffc
7ff81fe0
71f00f80
e0600600
80000000
00000000
00000000
00000000
00000000
00000000
00000000
00000000
ENDCHAR
STARTCHAR Y
ENCODING 89
SWIDTH 1057 0
DWIDTH 37 0
BBX 37 37 0 -9
BITMAP
0000000000
0000000000
0000000000
0000000000
3180181800
71c0183800
f3f0187c00
ffff1bff80
7fff187f80
03ff187c00
01ff187000
01ff186000
00ff98e000
00ffd8c000
01fff98000
01fffb0000
01fffb0000
01fffe0000
018ffe0000
0307fe0000
0003fe0000
0003fe0000
0003fe0000
0003fe0000
0003fe0000
000fffc000
000fff0000
0000f80000
0000380000
0000380000
00003e0000
00003f0000
00003f0000
00001f0000
00000e0000
0000000000
0000000000
ENDCHAR
STARTCHAR Z
ENCODING 90
SWIDTH 942 0
DWIDTH 33 0
BBX 33 37 0 -9
BITMAP
00000000
00000000
00000000
00000000
04000300
06000700
0f803f00
3fffff80
3fe67fe0
1f067fe0
0e07ffc0
0e07ff80
0e07ff00
0c0ffc00
001ff800
003ff000
007fe080
00ffc080
03ff8080
07ff01c0
0ffe01c0
1ffe03c0
3ffe07e0
7fe60ff8
fffffff8
ffffffe0
0ffe03c0
0f0e00c0
060e0000
000f8000
000fc000
0007c000
00038000
00000000
00000000
00000000
00000000
ENDCHAR
STARTCHAR a
ENCODING 97
SWIDTH 685 0
DWIDTH 24 0
BBX 24 37 0 -9
BITMAP
000000
000000
000000
000000
000000
000000
000000
000000
000000
000000
000000
000000
000000
783800
787c00
f9ffc0
ffffc0
783fc0
381f80
0fff80
07ff80
fe1f80
fe1f80
fe1f80
ffff80
ffffe0
fe1f00
180400
000000
000000
000000
000000
000000
000000
000000
000000
000000
ENDCHAR
STARTCHAR b
ENCODING 98
SWIDTH 714 0
DWIDTH 25 0
BBX 25 37 0 -9
BITMAP
000000
000000
000000
000000
000000
0e0000
3f8000
ff8000
ff8000
3f8000
3f8000
3f8000
3f8000
3f8600
3f8e00
3f9f80
3fffe0
3f0fe0
3f07e0
3f07e0
3f07e0
3f07e0
3f07e0
3f87e0
3fe7e0
7fffe0
03fc00
007000
000000
000000
000000
000000
000000
000000
000000
000000
000000
ENDCHAR
STARTCHAR c
ENCODING 99
SWIDTH 571 0
DWIDTH 20 0
BBX 20 37 0 -9
BITMAP
0000
0000
0000
0000
0000
0000
0000
0000
0000
0000
0000
0000
0000
0070
00f8
07fc
fe7c
fe38
fe38
fe30
fe00
fe00
fe00
fe00
ff80
fff8
0fe0
0380
0000
0000
0000
0000
0000
0000
0000
0000
0000
ENDCHAR
STARTCHAR d
ENCODING 100
SWIDTH 685 0
DWIDTH 24 0
BBX 24 37 0 -9
BITMAP
000000
000000
000000
000000
01e000
03f000
07fc00
0fffc0
00ffc0
003fc0
001fc0
001fc0
001fc0
079fc0
0f9fc0
7fff80
7f1f80
7e0f80
7c0f80
7c0f80
7c0f80
7c0f80
7e0f80
7f0f80
ffffc0
1fff00
03f000
00c000
000000
000000
000000
000000
000000
000000
000000
000000
000000
ENDCHAR
STARTCHAR e
ENCODING 101
SWIDTH 657 0
DWIDTH 23 0
BBX 23 37 0 -9
BITMAP
000000
000000
000000
000000
000000
000000
000000
000000
000000
000000
000000
000000
000000
00e000
01e000
0ff000
fff800
7efe00
7e7f80
7e3fc0
7e3f00
7fe000
7f0000
7f0000
7fe000
ffff80
0ffe00
01e000
000000
000000
000000
000000
000000
000000
000000
000000
000000
ENDCHAR
STARTCHAR f
ENCODING 102
SWIDTH 571 0
DWIDTH 20 0
BBX 20 37 0 -9
BITMAP
0000
0000
0000
0000
0030
0078
01fc
7ffc
3fb8
3fb8
3f90
3f80
3f90
3ff0
fff0
fff0
ffe0
3f80
3f80
3f80
3f80
3f80
3f80
3f80
7ff8
7ff8
07c0
0180
0000
0000
0000
0000
0000
0000
0000
0000
0000
ENDCHAR
STARTCHAR g
ENCODING 103
SWIDTH 657 0
DWIDTH 23 0
BBX 23 37 0 -9
BITMAP
000000
000000
000000
000000
000000
000000
000000
000000
000000
000000
000000
000000
000000
000000
007000
00f800
0fff00
7fffe0
7f3fe0
7f1fe0
7f0fe0
7f0fc0
7f0fc0
7f0fc0
7f0fc0
7f0fc0
ffffc0
1fcfe0
038fe0
3807e0
7f03e0
fb83e0
f807c0
781f80
3ffe00
0ff800
000000
ENDCHAR
STARTCHAR h
ENCODING 104
SWIDTH 685 0
DWIDTH 24 0
BBX 24 37 0 -9
BITMAP
000000
000000
000000
000000
000000
000000
1c0000
1e0000
7f8000
ff0000
7f0000
7f0000
7f0000
7f0000
7f1c00
7f3e00
7fffc0
7fff80
7f3f80
7f1f80
7e1f80
7e1f80
7e1f80
7e1f80
7e1f80
7f1fe0
ff0fc0
3c0300
000000
000000
000000
000000
000000
000000
000000
000000
000000
ENDCHAR
STARTCHAR i
ENCODING 105
SWIDTH 400 0
DWIDTH 14 0
BBX 14 37 0 -9
BITMAP
00
00
00
00
00
1c
1c
7f
ff
3e
1c
00
00
18
3c
7f
ff
7e
7e
7e
7e
7e
7e
7e
7e
ff
7f
18
00
00
00
00
00
00
00
00
00
ENDCHAR
STARTCHAR j
ENCODING 106
SWIDTH 428 0
DWIDTH 15 0
BBX 15 37 0 -9
BITMAP
0000
0000
0000
0000
0300
0780
0fc0
3fe0
0f80
0300
0000
0000
0700
0f00
3fc0
7fc0
1f80
1f80
1f80
1f80
1f80
1f80
1f80
1f80
1f80
7f80
ff80
ff80
ffc0
de00
7800
0000
0000
0000
0000
0000
0000
ENDCHAR
STARTCHAR k
ENCODING 107
SWIDTH 714 0
DWIDTH 25 0
BBX 25 37 0 -9
BITMAP
000000
000000
000000
000000
000000
0e0000
1e0000
ff8000
ffc000
3f8000
3f8000
3f8000
3f8000
3f8000
3f8300
3f0780
3f1fc0
3f0fc0
3f0f00
3f0c00
3ff800
3f3c00
3f0f00
3f0f80
3f0fc0
3f0fe0
ff87f0
1e0380
000000
000000
000000
000000
000000
000000
000000
000000
000000
ENDCHAR
STARTCHAR l
ENCODING 108
SWIDTH 400 0
DWIDTH 14 0
BBX 14 37 0 -9
BITMAP
0000
0000
0000
0000
0000
1e00
3f00
ff80
3f00
3f00
3f00
3f00
3f00
3f00
3f00
3f00
3f00
3f00
3f00
3f00
3f00
3f00
3f00
3f00
3f00
7f00
7f80
0c00
0000
0000
0000
0000
0000
0000
0000
0000
0000
ENDCHAR
STARTCHAR m
ENCODING 109
SWIDTH 1000 0
DWIDTH 35 0
BBX 35 37 0 -9
BITMAP
00000000
00000000
00000000
00000000
00000000
00000000
00000000
00000000
00000000
00000000
00000000
00000000
00000000
0c010000
1c038060
7f07c0f0
fffffffc
7f0fe3f8
3f0fe1f8
3f0fc1f8
3f0fc1f8
3f0fc1f8
3f0fc1f8
3f0fc1f8
7f0fc1f8
7f9fe3fc
1c0380f8
00000060
00000000
00000000
00000000
00000000
00000000
00000000
00000000
00000000
00000000
ENDCHAR
STARTCHAR n
ENCODING 110
SWIDTH 685 0
DWIDTH 24 0
BBX 24 37 0 -9
BITMAP
000000
000000
000000
000000
000000
000000
000000
000000
000000
000000
000000
000000
000000
000000
1c0300
3e0700
ffffc0
7f1fe0
7f1fc0
7e1fc0
7e1fc0
7e1fc0
7e1fc0
7e1fc0
7e1fc0
ff1fe0
3e0fe0
080300
000000
000000
000000
000000
000000
000000
000000
000000
000000
ENDCHAR
STARTCHAR o
ENCODING 111
SWIDTH 628 0
DWIDTH 22 0
BBX 22 37 0 -9
BITMAP
0000
0000
0000
0000
0000
0000
0000
0000
0000
0000
0000
0000
0000
0000
01c0
03e0
0fff
fdff
fcff
fc3f
fc1f
fc1f
fc1f
fe1f
ff1f
ffff
07f0
0380
0000
0000
0000
0000
0000
0000
0000
0000
0000
ENDCHAR
STARTCHAR p
ENCODING 112
SWIDTH 600 0
DWIDTH 21 0
BBX 21 37 0 -9
BITMAP
000000
000000
000000
000000
000000
000000
000000
000000
000000
000000
000000
000000
000000
000000
000000
180300
1c0f80
7fffe0
ff1fc0
7f0fc0
3f0fc0
3f0fc0
3f0fc0
3f0fc0
3f0fc0
3f3fc0
3f3fc0
3f0700
3f0200
3f0000
7f0000
7e0000
1c0000
000000
000000
000000
000000
ENDCHAR
STARTCHAR q
ENCODING 113
SWIDTH 600 0
DWIDTH 21 0
BBX 21 37 0 -9
BITMAP
000000
000000
000000
000000
000000
000000
000000
000000
000000
000000
000000
000000
000000
000000
00c000
03f000
1ffe00
fcff80
fc7f80
7c1f80
7c1f80
7c1f00
7c1f00
7c1f00
fe1f00
7f1f00
1e1f00
0c1f00
001f00
003f80
007f80
000e00
000000
000000
000000
000000
000000
ENDCHAR
STARTCHAR r
ENCODING 114
SWIDTH 571 0
DWIDTH 20 0
BBX 20 37 0 -9
BITMAP
0000
0000
0000
0000
0000
0000
0000
0000
0000
0000
0000
0000
0000
0000
0000
1818
3838
fffe
7f3c
7e18
7e10
7e00
7e00
7e00
3e00
3e00
7f00
1c00
0000
0000
0000
0000
0000
0000
0000
0000
0000
ENDCHAR
STARTCHAR s
ENCODING 115
SWIDTH 657 0
DWIDTH 23 0
BBX 23 37 0 -9
BITMAP
000000
000000
000000
000000
000000
000000
000000
000000
000000
000000
000000
000000
000000
000000
0070e0
01ffc0
ffff80
7eff00
7e7c00
7e0000
7ff000
7fdfc0
001fc0
0e1f80
3f9f80
ffff80
0fff80
01c000
000000
000000
000000
000000
000000
000000
000000
000000
000000
ENDCHAR
STARTCHAR t
ENCODING 116
SWIDTH 457 0
DWIDTH 16 0
BBX 16 37 0 -9
BITMAP
0000
0000
0000
0000
0000
0000
0000
0000
0000
0300
0300
0f00
3f00
3f00
3f00
3fc0
ffe0
ffe0
3f00
3f00
3f00
3f00
3f00
3f00
3f00
7f00
7fe0
0f80
0000
0000
0000
0000
0000
0000
0000
0000
0000
ENDCHAR
STARTCHAR u
ENCODING 117
SWIDTH 628 0
DWIDTH 22 0
BBX 22 37 0 -9
BITMAP
000000
000000
000000
000000
000000
000000
000000
000000
000000
000000
000000
000000
000000
000000
180e00
381f00
7e7f80
fe3f80
fc3f00
fc3f00
fc3f00
fc3f00
fc3f00
fc3f00
fc3f00
ffff00
fc1e00
300000
000000
000000
000000
000000
000000
000000
000000
000000
000000
ENDCHAR
STARTCHAR v
ENCODING 118
SWIDTH 628 0
DWIDTH 22 0
BBX 22 37 0 -9
BITMAP
000000
000000
000000
000000
000000
000000
000000
000000
000000
000000
000000
000000
000000
000000
000000
380e00
7c3f00
fe3f80
7e1c00
3e1800
3e1800
1f0000
1f0000
0f8000
0fe000
0fe000
07c000
038000
000000
000000
000000
000000
000000
000000
000000
000000
000000
ENDCHAR
STARTCHAR w
ENCODING 119
SWIDTH 942 0
DWIDTH 33 0
BBX 33 37 0 -9
BITMAP
00000000
00000000
00000000
00000000
00000000
00000000
00000000
00000000
00000000
00000000
00000000
00000000
00000000
00000000
00000000
18070180
3c0f03c0
ff3fc7f0
ff8fc380
3f8fc300
3f8fc200
1f8fc000
0f87e000
0fc3e000
0ff3f800
0ff3fc00
0ff3fc00
01c06000
00000000
00000000
00000000
00000000
00000000
00000000
00000000
00000000
00000000
ENDCHAR
STARTCHAR x
ENCODING 120
SWIDTH 714 0
DWIDTH 25 0
BBX 25 37 0 -9
BITMAP
000000
000000
000000
000000
000000
000000
000000
000000
000000
000000
000000
000000
000000
000000
0c0600
1e0f00
ffdfc0
7fce00
1fcc00
07f000
03f000
03f800
03fc00
0c7e00
1c7f80
7c7fe0
fe3fc0
180300
000000
000000
000000
000000
000000
000000
000000
000000
000000
ENDCHAR
STARTCHAR y
ENCODING 121
SWIDTH 657 0
DWIDTH 23 0
BBX 23 37 0 -9
BITMAP
000000
000000
000000
000000
000000
000000
000000
000000
000000
000000
000000
000000
000000
000000
1c0700
3e0f80
ff1fe0
ff0fe0
7f0fc0
7f0fc0
7f0fc0
7f0fc0
3f0fc0
3f0fc0
1f0fc0
1f0fc0
1fff80
3ffe00
600f80
c03fc0
c1c3e0
7f03c0
3c0000
000000
000000
000000
000000
ENDCHAR
STARTCHAR z
ENCODING 122
SWIDTH 657 0
DWIDTH 23 0
BBX 23 37 0 -9
BITMAP
000000
000000
000000
000000
000000
000000
000000
000000
000000
000000
000000
000000
000000
000000
180c00
3ffc00
7f7f80
387f00
30fe00
01f800
07f000
0fe000
1fc180
3f8180
7f0380
ff9fc0
3e0780
080100
000000
000000
000000
000000
000000
000000
000000
000000
000000
ENDCHAR
ENDFONT
